<?xml version="1.0" encoding="UTF-8"?><svg xmlns="http://www.w3.org/2000/svg" viewBox="0 0 512 512"><defs><style>.p{fill:#8c6239;}.q,.r{fill:#fff;}.s{fill:#df1818;}.t{stroke-width:8.55px;}.t,.u{stroke:#000;}.t,.u,.r,.v{stroke-miterlimit:10;}.t,.u,.v{fill:none;}.w{fill:#ff1c1c;}.u{stroke-width:14.67px;}.r{stroke:#333;}.r,.v{stroke-width:9.78px;}.v{stroke:#1b1464;}.x{fill:#dfdfdf;}</style></defs><g id="a"/><g id="b"><g id="c"/><g><path class="r" d="M111.96,63.23l11.12-32.03c0-.19,.17-.32,.35-.28,6.53,1.64,102.97,24.12,132.56,144.11"/><path class="r" d="M256,175.04C191.22,79.5,82.39,53.07,78.6,52.17c-.07-.02-.13,0-.18,.06l-22.57,30.22"/></g><g><path class="r" d="M400.04,60.9l-11.12-32.03c0-.19-.17-.32-.35-.28-6.53,1.64-102.97,24.12-132.56,144.11"/><path class="r" d="M256,172.71c64.78-95.54,173.61-121.97,177.4-122.86,.07-.02,.13,0,.18,.06l22.57,30.22"/></g><g id="d"><path class="p" d="M225.03,175.04L40.62,72.45c-4.82-2.68-10.75,.8-10.75,6.32V369.69c0,2.98,1.61,5.73,4.22,7.18l188.98,105.45c1.28,.72,2.73,1.09,4.2,1.09h51.09c4.75,0,8.61-3.85,8.61-8.61V175.04h-61.94Z"/><g><path class="p" d="M286.97,175.04l184.4-102.59c4.82-2.68,10.75,.8,10.75,6.32V369.69c0,2.98-1.61,5.73-4.22,7.18l-188.98,105.45c-1.28,.72-2.73,1.09-4.2,1.09h-51.09c-4.75,0-8.61-3.85-8.61-8.61V175.04h61.94Z"/><line class="p" x1="286.97" y1="175.04" x2="286.97" y2="483.42"/></g></g><g id="e"><line class="v" x1="225.03" y1="224.67" x2="286.97" y2="224.67"/><line class="v" x1="225.03" y1="249.98" x2="286.97" y2="249.98"/></g><g id="f"><g><path class="u" d="M225.03,175.04L40.62,72.45c-4.82-2.68-10.75,.8-10.75,6.32V369.69c0,2.98,1.61,5.73,4.22,7.18l188.98,105.45c1.28,.72,2.73,1.09,4.2,1.09h51.09c4.75,0,8.61-3.85,8.61-8.61V175.04h-61.94Z"/><line class="u" x1="225.03" y1="175.04" x2="225.03" y2="483.42"/></g><g><path class="u" d="M286.97,175.04l184.4-102.59c4.82-2.68,10.75,.8,10.75,6.32V369.69c0,2.98-1.61,5.73-4.22,7.18l-188.98,105.45c-1.28,.72-2.73,1.09-4.2,1.09h-51.09c-4.75,0-8.61-3.85-8.61-8.61V175.04h61.94Z"/><line class="u" x1="286.97" y1="175.04" x2="286.97" y2="483.42"/></g></g><g id="g"><g id="h"><g id="i"><path id="j" class="q" d="M387.55,262.63c-6.81,3.73-12.49,.76-13.84-6.58-9.06,4.94-13.59,7.41-22.66,12.35-.02,19.95,18.37,32.51,36.26,22.06,20.74-12.11,34.53-37.87,36.26-61.59-8.87,4.84-13.31,7.25-22.18,12.09-1.35,8.8-7.03,17.94-13.84,21.67Z"/><path id="k" class="x" d="M395.64,284.68c15.86-13.63,26.42-34.99,27.93-55.81-3.57,1.95-5.36,2.92-8.93,4.87-.94,17.87-7.49,37.03-19,50.94Z"/><path id="l" class="q" d="M395.89,240.29h0s-.02,0,0,0c-.02-1.28-.2-2.41-.54-3.37-1.18-3.34-4.23-4.5-7.81-2.56-3.57,1.94-6.63,6.44-7.81,11.05-.34,1.33-.52,2.66-.52,3.96h.02c0,1.29,.19,2.42,.52,3.38,1.18,3.35,4.23,4.51,7.81,2.55,3.57-1.95,6.63-6.46,7.81-11.06,.34-1.31,.52-2.66,.52-3.95h0Z"/><path id="m" class="w" d="M387.56,227.05c6.81-3.69,12.49-.71,13.84,6.6,9.06-4.93,13.59-7.39,22.66-12.32-.79-19.04-18.58-32.72-36.28-22.11-20.2,12.11-34.54,37.83-36.26,61.54,8.88-4.83,13.32-7.24,22.2-12.07,1.35-8.81,7.03-17.94,13.84-21.63Z"/><path id="n" class="s" d="M414.64,226.43c3.76-2.05,5.64-3.07,9.41-5.12,.06-15.95-12.56-29.19-28.74-25.17,15,2.54,17.4,17.99,19.34,30.29Z"/></g><path id="o" d="M387.78,199.21c17.69-10.61,35.49,3.06,36.26,22.1-9.06,4.93-13.59,7.39-22.66,12.32-1.35-7.31-7.03-10.29-13.84-6.6-6.81,3.69-12.49,12.84-13.84,21.65-8.87,4.83-13.31,7.24-22.18,12.07,1.72-23.71,16.07-49.44,36.26-61.54Zm7.57,37.71c.34,.96,.52,2.09,.52,3.38h.02c0,1.28-.19,2.61-.52,3.94-1.18,4.63-4.23,9.11-7.81,11.06-3.57,1.95-6.63,.77-7.81-2.55-.34-.96-.52-2.09-.52-3.39h-.02c0-1.29,.19-2.62,.52-3.95,1.18-4.63,4.23-9.11,7.81-11.05,3.57-1.94,6.63-.76,7.81,2.56Zm-8.04,53.56c-17.9,10.45-36.3-2.09-36.26-22.06,9.06-4.94,13.59-7.41,22.66-12.35,1.35,7.34,7.03,10.31,13.84,6.58,6.81-3.73,12.49-12.89,13.84-21.67,8.88-4.84,13.32-7.26,22.2-12.1-1.75,23.72-15.53,49.49-36.28,61.6Zm.24-99.88c-26.03,14.14-42.56,48.73-43.1,77.7-.46,24.92,18.49,45.16,43.1,30.76,25.57-14.96,43.04-48.59,43.12-77.71,.07-24.47-18.83-43.95-43.12-30.76Z"/></g><ellipse class="t" cx="387.39" cy="245.18" rx="56.8" ry="34.23" transform="translate(6.61 500.5) rotate(-66.17)"/></g></g></svg>